<svg xmlns="http://www.w3.org/2000/svg" width="92" height="30" viewBox="0 0 92 30" fill="none">
	<g clip-path="url(#clip0_638_7084)">
		<path d="M0 18.6071H28.226V11.6294H17.1879L18.9619 6.97766H28.226V0H14.1524L9.73719 11.6294H0V18.6071Z" fill="#F26722"></path>
		<path d="M2.75953 30H10.2103L12.8515 23.0223H5.40079L2.75953 30Z" fill="#F26722"></path>
		<path d="M40.092 9.26425V13.167H47.3851V15.4535H40.092V23.0225H37.4902V6.97778H48.2918V9.26425H40.092Z" fill="#333D46"></path>
		<path d="M47.7793 17.1486C47.7793 13.4035 50.0263 10.9988 53.6926 10.9988C57.3588 10.9988 59.6058 13.3641 59.6058 17.1486C59.6058 20.8937 57.3588 23.2984 53.6926 23.2984C50.0263 23.2984 47.7793 20.8937 47.7793 17.1486ZM57.0434 17.1486C57.0434 14.5073 55.8213 13.0093 53.6926 13.0093C51.5638 13.0093 50.3417 14.5073 50.3417 17.1486C50.3417 19.7899 51.5638 21.2879 53.6926 21.2879C55.8213 21.2879 57.0434 19.7505 57.0434 17.1486Z" fill="#333D46"></path>
		<path d="M67.0171 11.1959V13.6401C66.7412 13.6006 66.4652 13.5612 66.1498 13.5612C62.9961 13.5612 62.9567 16.3208 62.9567 17.9765V22.983H60.4337V11.2748H62.9173V13.2459C63.5874 11.9055 64.6912 11.1565 66.2681 11.1565C66.5441 11.1565 66.7806 11.1565 67.0171 11.1959Z" fill="#333D46"></path>
		<path d="M78.7648 22.7071C78.7648 25.6243 76.8726 27.6348 73.1275 27.6348C69.8949 27.6348 68.0027 26.1368 67.6873 23.8109H70.2103C70.5651 25.0724 71.5901 25.6637 73.1275 25.6637C75.2563 25.6637 76.2418 24.5993 76.2418 22.7071V20.8543C75.4928 22.0369 74.2707 22.8648 72.3391 22.8648C69.2642 22.8648 67.096 20.6966 67.096 16.9121C67.096 13.167 69.2642 10.9988 72.3391 10.9988C74.2707 10.9988 75.4928 11.8267 76.2418 12.9699V11.2353H78.7648V22.7071ZM76.3601 16.9121C76.3601 14.5862 75.138 12.9699 72.9698 12.9699C70.8016 12.9699 69.6584 14.665 69.6584 16.9121C69.6584 19.1985 70.8016 20.8543 72.9698 20.8543C75.138 20.8937 76.3601 19.238 76.3601 16.9121Z" fill="#333D46"></path>
		<path d="M91.5375 17.8188H82.234C82.4705 19.987 83.732 21.3273 85.7425 21.3273C87.4771 21.3273 88.5809 20.3812 88.9357 19.1197H91.4981C90.9462 21.8398 88.7385 23.2984 85.7425 23.2984C81.9186 23.2984 79.6715 20.8148 79.6715 17.1486C79.6715 13.4824 82.0368 10.9988 85.7425 10.9988C89.5664 10.9988 91.774 13.6795 91.5375 17.8188ZM88.9751 16.0842C88.8568 14.4679 87.8318 12.9699 85.7031 12.9699C83.8108 12.9699 82.6282 14.1131 82.3522 16.0842H88.9751Z" fill="#333D46"></path>
	</g>
	<defs>
		<clipPath id="clip0_638_7084">
		<rect width="91.5548" height="30" fill="white"></rect>
		</clipPath>
	</defs>
</svg>